<svg xmlns="http://www.w3.org/2000/svg" viewBox="0 0 100 100" width="100%" height="100%">
  <!-- Rounded jet-black background -->
  <rect width="100" height="100" rx="20" fill="#0A0A0A" />
  
  <g id="standing-hanuman">
    <!-- Tail (flowing behind) -->
    <path d="M45,54 C28,56 18,44 18,30 C18,14 34,8 43,12 C32,10 22,18 22,30 C22,40 30,49 45,49 Z" fill="#FF6B00" />
    
    <!-- Left Leg (stance) -->
    <path d="M45,54 C41,64 38,74 38,85 L44,85 C46,75 48,65 50,54 Z" fill="#FF6B00" />
    
    <!-- Right Leg (stance) -->
    <path d="M55,54 C59,64 62,74 62,85 L56,85 C54,75 52,65 50,54 Z" fill="#FF6B00" />
    <path d="M50,54 C54,64 56,75 56,85 L62,85 C62,74 59,64 55,54 Z" fill="#CC5500" />
    
    <!-- Dhoti/Sash -->
    <path d="M43,53 L57,53 L55,62 L45,62 Z" fill="#FF6B00" />
    <path d="M50,53 L57,53 L55,62 L50,62 Z" fill="#CC5500" />
    
    <!-- Torso (Muscular, tapered) -->
    <path d="M39,37 C39,37 50,39 61,37 C59,46 56,54 55,54 L45,54 C44,54 41,46 39,37 Z" fill="#FF6B00" />
    <path d="M50,38 C50,38 55.5,38.5 61,37 C59,46 56,54 55,54 L50,54 Z" fill="#CC5500" />
    
    <!-- Head & Crown -->
    <circle cx="50" cy="32" r="4.5" fill="#FF6B00" />
    <polygon points="47,28 50,22 53,28" fill="#FF6B00" />
    <polygon points="50,28 50,22 53,28" fill="#CC5500" />
    
    <!-- Left Arm (resting on hip) -->
    <path d="M39,35 C33,38 30,44 31,48 C32,51 37,51 38,47 C39,43 43,40 44,38 Z" fill="#FF6B00" />
    
    <!-- Right Arm (holding Gada on shoulder) -->
    <path d="M61,35 C67,38 70,44 69,48 C68,50 64,48 62,44 C61,41 59,39 58,38 Z" fill="#FF6B00" />
    <path d="M65,37 C69,40 70,44 69,48 C68,50 66,49 64,45 Z" fill="#CC5500" />
    
    <!-- Gada / Mace (resting on shoulder) -->
    <g id="standing-gada">
      <rect x="61" y="10" width="3" height="32" rx="1" transform="rotate(22 62.5 26)" fill="#FF6B00" />
      <circle cx="72" cy="11" r="8" fill="#FF6B00" />
      <path d="M72,3 A8,8 0 0,1 72,19 Z" fill="#CC5500" />
      <polygon points="70,3 74,3 72,0" fill="#FF6B00" />
    </g>
  </g>
</svg>
